<svg width="21" height="20" viewBox="0 0 21 20" fill="none" xmlns="http://www.w3.org/2000/svg">
<path d="M8.68089 12.9167C8.60649 12.6283 8.45617 12.3651 8.24557 12.1545C8.03497 11.9439 7.77178 11.7936 7.48339 11.7192L2.37089 10.4009C2.28366 10.3761 2.2069 10.3236 2.15223 10.2512C2.09757 10.1789 2.06799 10.0907 2.06799 10C2.06799 9.90937 2.09757 9.82118 2.15223 9.74884C2.2069 9.6765 2.28366 9.62397 2.37089 9.59921L7.48339 8.28004C7.77168 8.20572 8.0348 8.05552 8.24539 7.84508C8.45598 7.63463 8.60636 7.37162 8.68089 7.08338L9.99922 1.97088C10.0237 1.88331 10.0762 1.80616 10.1487 1.75121C10.2211 1.69625 10.3095 1.6665 10.4005 1.6665C10.4914 1.6665 10.5798 1.69625 10.6523 1.75121C10.7247 1.80616 10.7772 1.88331 10.8017 1.97088L12.1192 7.08338C12.1936 7.37177 12.3439 7.63496 12.5545 7.84556C12.7651 8.05616 13.0283 8.20648 13.3167 8.28088L18.4292 9.59838C18.5171 9.62263 18.5947 9.67505 18.6499 9.74761C18.7052 9.82016 18.7351 9.90884 18.7351 10C18.7351 10.0912 18.7052 10.1799 18.6499 10.2525C18.5947 10.325 18.5171 10.3775 18.4292 10.4017L13.3167 11.7192C13.0283 11.7936 12.7651 11.9439 12.5545 12.1545C12.3439 12.3651 12.1936 12.6283 12.1192 12.9167L10.8009 18.0292C10.7764 18.1168 10.7239 18.1939 10.6515 18.2489C10.579 18.3038 10.4906 18.3336 10.3996 18.3336C10.3087 18.3336 10.2203 18.3038 10.1478 18.2489C10.0754 18.1939 10.0229 18.1168 9.99839 18.0292L8.68089 12.9167Z" stroke="white" stroke-width="2" stroke-linecap="round" stroke-linejoin="round"/>
<path d="M17.0667 2.5V5.83333" stroke="white" stroke-width="2" stroke-linecap="round" stroke-linejoin="round"/>
<path d="M18.7334 4.16663H15.4" stroke="white" stroke-width="2" stroke-linecap="round" stroke-linejoin="round"/>
<path d="M3.7334 14.1666V15.8333" stroke="white" stroke-width="2" stroke-linecap="round" stroke-linejoin="round"/>
<path d="M4.56669 15H2.90002" stroke="white" stroke-width="2" stroke-linecap="round" stroke-linejoin="round"/>
</svg>
