<svg width="21" height="20" viewBox="0 0 21 20" fill="none" xmlns="http://www.w3.org/2000/svg">
<path d="M14.0033 8.33337C14.0033 9.21743 13.6521 10.0653 13.027 10.6904C12.4019 11.3155 11.5541 11.6667 10.67 11.6667C9.78595 11.6667 8.9381 11.3155 8.31298 10.6904C7.68786 10.0653 7.33667 9.21743 7.33667 8.33337" stroke="white" stroke-width="2" stroke-linecap="round" stroke-linejoin="round"/>
<path d="M3.25586 5.02832H18.0842" stroke="white" stroke-width="2" stroke-linecap="round" stroke-linejoin="round"/>
<path d="M3.50338 4.55579C3.28701 4.84429 3.17004 5.19518 3.17004 5.55579V16.6666C3.17004 17.1087 3.34564 17.5326 3.6582 17.8451C3.97076 18.1577 4.39468 18.3333 4.83671 18.3333H16.5034C16.9454 18.3333 17.3693 18.1577 17.6819 17.8451C17.9944 17.5326 18.17 17.1087 18.17 16.6666V5.55579C18.17 5.19518 18.0531 4.84429 17.8367 4.55579L16.17 2.33329C16.0148 2.1263 15.8135 1.95829 15.5821 1.84258C15.3506 1.72687 15.0955 1.66663 14.8367 1.66663H6.50338C6.24464 1.66663 5.98945 1.72687 5.75802 1.84258C5.5266 1.95829 5.32529 2.1263 5.17004 2.33329L3.50338 4.55579Z" stroke="white" stroke-width="2" stroke-linecap="round" stroke-linejoin="round"/>
</svg>
